<?xml version="1.0" encoding="UTF-8" standalone="no"?>
<!DOCTYPE svg PUBLIC "-//W3C//DTD SVG 1.1//EN"
 "http://www.w3.org/Graphics/SVG/1.1/DTD/svg11.dtd">
<!-- Generated by graphviz version 2.40.1 (20161225.0304)
 -->
<!-- Title: G Pages: 1 -->
<svg width="367pt" height="375pt"
 viewBox="0.00 0.00 367.00 374.80" xmlns="http://www.w3.org/2000/svg" xmlns:xlink="http://www.w3.org/1999/xlink">
<g id="graph0" class="graph" transform="scale(1 1) rotate(0) translate(4 370.8)">
<title>G</title>
<polygon fill="#ffffff" stroke="transparent" points="-4,4 -4,-370.8 363,-370.8 363,4 -4,4"/>
<g id="clust1" class="cluster">
<title>cluster_web</title>
<path fill="#072d55" stroke="#072d55" d="M20,-8C20,-8 160,-8 160,-8 166,-8 172,-14 172,-20 172,-20 172,-346.8 172,-346.8 172,-352.8 166,-358.8 160,-358.8 160,-358.8 20,-358.8 20,-358.8 14,-358.8 8,-352.8 8,-346.8 8,-346.8 8,-20 8,-20 8,-14 14,-8 20,-8"/>
<text text-anchor="middle" x="90" y="-342.2" font-family="Times,serif" font-size="14.00" fill="#ffffff">web</text>
</g>
<g id="clust2" class="cluster">
<title>cluster_w1</title>
<path fill="#052342" stroke="#052342" d="M28,-16C28,-16 74,-16 74,-16 80,-16 86,-22 86,-28 86,-28 86,-155.2 86,-155.2 86,-161.2 80,-167.2 74,-167.2 74,-167.2 28,-167.2 28,-167.2 22,-167.2 16,-161.2 16,-155.2 16,-155.2 16,-28 16,-28 16,-22 22,-16 28,-16"/>
<text text-anchor="middle" x="51" y="-156" font-family="Times,serif" font-size="8.00" fill="#736e74">localhost:8081</text>
</g>
<g id="clust3" class="cluster">
<title>cluster_w2</title>
<path fill="#052342" stroke="#052342" d="M106,-16C106,-16 152,-16 152,-16 158,-16 164,-22 164,-28 164,-28 164,-155.2 164,-155.2 164,-161.2 158,-167.2 152,-167.2 152,-167.2 106,-167.2 106,-167.2 100,-167.2 94,-161.2 94,-155.2 94,-155.2 94,-28 94,-28 94,-22 100,-16 106,-16"/>
<text text-anchor="middle" x="129" y="-156" font-family="Times,serif" font-size="8.00" fill="#736e74">localhost:8082</text>
</g>
<g id="clust4" class="cluster">
<title>cluster_proj</title>
<path fill="#5c660a" stroke="#5c660a" d="M192,-97.6C192,-97.6 339,-97.6 339,-97.6 345,-97.6 351,-103.6 351,-109.6 351,-109.6 351,-251 351,-251 351,-257 345,-263 339,-263 339,-263 192,-263 192,-263 186,-263 180,-257 180,-251 180,-251 180,-109.6 180,-109.6 180,-103.6 186,-97.6 192,-97.6"/>
<text text-anchor="middle" x="265.5" y="-246.4" font-family="Times,serif" font-size="14.00" fill="#ffffff">project</text>
</g>
<!-- w0 -->
<g id="node1" class="node">
<title>w0</title>
<polygon fill="#25598f" stroke="#25598f" points="137.4208,-326 134.4208,-330 113.4208,-330 110.4208,-326 42.5792,-326 42.5792,-290 137.4208,-290 137.4208,-326"/>
<text text-anchor="middle" x="90" y="-303.8" font-family="Times,serif" font-size="14.00" fill="#000000">my containers</text>
</g>
<!-- w1 -->
<g id="node2" class="node">
<title>w1</title>
<polygon fill="#25598f" stroke="#25598f" points="80,-230.2 77,-234.2 56,-234.2 53,-230.2 26,-230.2 26,-194.2 80,-194.2 80,-230.2"/>
<text text-anchor="middle" x="53" y="-208" font-family="Times,serif" font-size="14.00" fill="#000000">web&#45;1</text>
</g>
<!-- w0&#45;&gt;w1 -->
<g id="edge1" class="edge">
<title>w0&#45;&gt;w1</title>
<path fill="none" stroke="#000000" d="M83.0406,-289.9808C77.5972,-275.8868 69.9344,-256.0463 63.7106,-239.9317"/>
<polygon fill="#000000" stroke="#000000" points="66.9219,-238.5316 60.054,-230.4642 60.392,-241.0536 66.9219,-238.5316"/>
</g>
<!-- w2 -->
<g id="node4" class="node">
<title>w2</title>
<polygon fill="#25598f" stroke="#25598f" points="155,-230.2 152,-234.2 131,-234.2 128,-230.2 101,-230.2 101,-194.2 155,-194.2 155,-230.2"/>
<text text-anchor="middle" x="128" y="-208" font-family="Times,serif" font-size="14.00" fill="#000000">web&#45;2</text>
</g>
<!-- w0&#45;&gt;w2 -->
<g id="edge3" class="edge">
<title>w0&#45;&gt;w2</title>
<path fill="none" stroke="#000000" d="M97.1475,-289.9808C102.738,-275.8868 110.6079,-256.0463 117,-239.9317"/>
<polygon fill="#000000" stroke="#000000" points="120.3216,-241.0501 120.7553,-230.4642 113.8148,-238.4691 120.3216,-241.0501"/>
</g>
<!-- w11 -->
<g id="node3" class="node">
<title>w11</title>
<polygon fill="#25598f" stroke="#25598f" points="78.0899,-141.6 75.0899,-145.6 54.0899,-145.6 51.0899,-141.6 23.9101,-141.6 23.9101,-105.6 78.0899,-105.6 78.0899,-141.6"/>
<text text-anchor="middle" x="51" y="-119.4" font-family="Times,serif" font-size="14.00" fill="#000000">docker</text>
</g>
<!-- w1&#45;&gt;w11 -->
<g id="edge2" class="edge">
<title>w1&#45;&gt;w11</title>
<path fill="none" stroke="#000000" d="M52.5856,-193.842C52.3129,-181.7636 51.9506,-165.7126 51.6412,-152.0032"/>
<polygon fill="#000000" stroke="#000000" points="55.1319,-151.5497 51.407,-141.6313 48.1337,-151.7078 55.1319,-151.5497"/>
</g>
<!-- w12 -->
<g id="node6" class="node">
<title>w12</title>
<polygon fill="#25598f" stroke="#25598f" points="78,-60 75,-64 54,-64 51,-60 24,-60 24,-24 78,-24 78,-60"/>
<text text-anchor="middle" x="51" y="-37.8" font-family="Times,serif" font-size="14.00" fill="#000000">public</text>
</g>
<!-- w11&#45;&gt;w12 -->
<!-- w21 -->
<g id="node5" class="node">
<title>w21</title>
<polygon fill="#25598f" stroke="#25598f" points="156.0899,-141.6 153.0899,-145.6 132.0899,-145.6 129.0899,-141.6 101.9101,-141.6 101.9101,-105.6 156.0899,-105.6 156.0899,-141.6"/>
<text text-anchor="middle" x="129" y="-119.4" font-family="Times,serif" font-size="14.00" fill="#000000">docker</text>
</g>
<!-- w2&#45;&gt;w21 -->
<g id="edge4" class="edge">
<title>w2&#45;&gt;w21</title>
<path fill="none" stroke="#000000" d="M128.2072,-193.842C128.3435,-181.7636 128.5247,-165.7126 128.6794,-152.0032"/>
<polygon fill="#000000" stroke="#000000" points="132.1833,-151.6702 128.7965,-141.6313 125.1838,-151.5911 132.1833,-151.6702"/>
</g>
<!-- w22 -->
<g id="node7" class="node">
<title>w22</title>
<polygon fill="#25598f" stroke="#ff9900" points="156,-60 153,-64 132,-64 129,-60 102,-60 102,-24 156,-24 156,-60"/>
<text text-anchor="middle" x="129" y="-37.8" font-family="Times,serif" font-size="14.00" fill="#000000">public</text>
</g>
<!-- w21&#45;&gt;w22 -->
<!-- p0 -->
<g id="node8" class="node">
<title>p0</title>
<polygon fill="#6d7a00" stroke="#6d7a00" points="293,-230.2 290,-234.2 269,-234.2 266,-230.2 239,-230.2 239,-194.2 293,-194.2 293,-230.2"/>
<text text-anchor="middle" x="266" y="-208" font-family="Times,serif" font-size="14.00" fill="#000000">source</text>
</g>
<!-- p1 -->
<g id="node9" class="node">
<title>p1</title>
<polygon fill="#6d7a00" stroke="#6d7a00" points="256.3711,-141.6 253.3711,-145.6 232.3711,-145.6 229.3711,-141.6 187.6289,-141.6 187.6289,-105.6 256.3711,-105.6 256.3711,-141.6"/>
<text text-anchor="middle" x="222" y="-119.4" font-family="Times,serif" font-size="14.00" fill="#000000">project_1</text>
</g>
<!-- p0&#45;&gt;p1 -->
<g id="edge7" class="edge">
<title>p0&#45;&gt;p1</title>
<path fill="none" stroke="#000000" d="M256.8832,-193.842C250.7067,-181.4048 242.4384,-164.7555 235.5019,-150.788"/>
<polygon fill="#000000" stroke="#000000" points="238.5372,-149.0309 230.9546,-141.6313 232.2678,-152.1445 238.5372,-149.0309"/>
</g>
<!-- p2 -->
<g id="node10" class="node">
<title>p2</title>
<polygon fill="#ff9900" stroke="#ff9900" points="343.3711,-141.6 340.3711,-145.6 319.3711,-145.6 316.3711,-141.6 274.6289,-141.6 274.6289,-105.6 343.3711,-105.6 343.3711,-141.6"/>
<text text-anchor="middle" x="309" y="-119.4" font-family="Times,serif" font-size="14.00" fill="#000000">project_2</text>
</g>
<!-- p0&#45;&gt;p2 -->
<g id="edge8" class="edge">
<title>p0&#45;&gt;p2</title>
<path fill="none" stroke="#000000" d="M274.9096,-193.842C280.9457,-181.4048 289.0261,-164.7555 295.8049,-150.788"/>
<polygon fill="#000000" stroke="#000000" points="299.0314,-152.156 300.2489,-141.6313 292.7339,-149.0996 299.0314,-152.156"/>
</g>
<!-- p2&#45;&gt;w22 -->
<g id="edge9" class="edge">
<title>p2&#45;&gt;w22</title>
<path fill="none" stroke="#ff9900" d="M279.5031,-105.379C274.7183,-102.6538 269.7682,-99.9677 265,-97.6 232.2405,-81.3326 193.5116,-65.845 165.7783,-55.3672"/>
<polygon fill="#ff9900" stroke="#ff9900" points="166.6821,-51.9685 156.0897,-51.7415 164.2286,-58.5244 166.6821,-51.9685"/>
<text text-anchor="middle" x="252.9988" y="-80.4" font-family="Times,serif" font-size="8.00" fill="#2c2a2d">linked</text>
</g>
</g>
</svg>
